<svg width="100" height="80" viewBox="0 0 100 80" fill="none" xmlns="http://www.w3.org/2000/svg">
<g id="Car">
<path d="M38.2276 26.0951C47.2142 25.9338 56.5669 25.8928 65.5443 26.1456C76.1263 26.4434 85.2438 26.4867 93.6316 33.485C98.0285 37.1543 99.0385 39.7762 99.2445 45.3428C99.3688 48.7023 99.2187 61.109 97.5523 63.5664C94.4664 68.1169 81.4249 69.3231 76.2114 69.4892C58.3509 70.0582 40.1333 69.1176 22.2403 69.413C17.1402 69.1714 6.10949 67.9058 2.76924 63.8192C1.18544 61.881 0.935233 53.6291 0.866844 50.8996C0.680857 43.4656 0.167935 38.8469 6.3205 33.6375C15.5756 25.8013 26.5622 26.3053 38.2268 26.0959L38.2276 26.0951ZM14.0494 36.0548C4.00693 36.9865 2.06033 54.9871 12.8292 54.0408C22.9325 53.1524 24.8424 35.054 14.0494 36.0548ZM84.4482 36.0532C74.2439 37.1856 78.9595 56.2663 89.6183 53.8771C98.7424 51.8322 94.3055 34.9585 84.4482 36.0532ZM30.4796 44.6413C29.0375 45.0113 29.035 47.5024 30.5388 47.7416H69.6527C71.1272 47.4021 71.0521 44.8572 69.5734 44.6221L30.4796 44.6413ZM73.0596 53.4919C74.0771 52.8081 73.7827 50.6613 72.3407 50.6276H27.7715C25.99 50.8619 26.0409 53.5858 27.8499 53.7503H72.1038C72.4783 53.7166 72.736 53.7086 73.0596 53.4919Z" fill="#29A397"/>
<path d="M88.8109 26.7556C88.6316 26.9297 84.5749 25.2949 83.9845 25.185C83.0996 21.0919 82.2305 16.9861 81.173 12.9316C80.806 11.5255 80.1955 8.37385 79.5917 7.23021C79.4782 7.01432 79.444 6.95894 79.2456 6.80325C77.4307 5.37711 66.4008 4.69895 63.6494 4.55208C53.918 4.03363 43.502 4.04968 33.7815 4.70858C31.2969 4.87712 22.739 5.51996 20.9651 6.74546C20.3512 7.17002 19.7607 9.84814 19.5247 10.6812C18.1761 15.446 17.2203 20.3271 16.1603 25.1585C15.3604 25.2692 11.9735 26.8503 11.4839 26.8198C11.3813 26.8134 11.3597 26.7893 11.3013 26.7146L16.9693 6.32011C18.2186 2.1091 26.5572 1.51521 30.4729 1.06739C43.4461 -0.416539 60.6152 -0.433393 73.51 1.52484C76.7735 2.02082 83.5433 2.74954 84.2397 6.48223L88.8109 26.754V26.7556Z" fill="#29A397"/>
<path d="M98.6866 66.8247C98.423 69.9692 99.0802 73.738 98.5982 76.8125C98.378 78.2186 97.2871 79.7058 95.7233 79.9C94.4981 80.0525 86.9527 80.0123 86.0954 79.664C85.0478 79.2387 84.2814 77.9177 84.0921 76.8784C84.0045 76.396 83.8919 72.6264 84.0262 72.4458C84.1796 72.2404 88.4665 71.6569 89.1921 71.486C92.5365 70.7011 96.4606 69.4563 98.6874 66.8239L98.6866 66.8247Z" fill="#29A397"/>
<path d="M1.42397 66.901C4.10117 69.7196 8.15118 70.9306 11.9326 71.7292C12.5598 71.8616 15.9826 72.2203 16.1194 72.376C16.2845 72.5654 16.0635 76.782 15.9234 77.3166C15.6056 78.5292 14.5097 79.7483 13.1611 79.9048C11.9593 80.0444 4.71585 80.0509 3.79759 79.7852C2.47483 79.4032 1.4248 77.4787 1.4248 76.2138V66.9002L1.42397 66.901Z" fill="#29A397"/>
<path d="M64.9071 19.8793C68.1752 19.8793 70.8245 17.3299 70.8245 14.1852C70.8245 11.0404 68.1752 8.49102 64.9071 8.49102C61.639 8.49102 58.9897 11.0404 58.9897 14.1852C58.9897 17.3299 61.639 19.8793 64.9071 19.8793Z" fill="#29A397"/>
<path d="M35.2168 19.8745C38.4844 19.8745 41.1333 17.3255 41.1333 14.1811C41.1333 11.0368 38.4844 8.48781 35.2168 8.48781C31.9492 8.48781 29.3003 11.0368 29.3003 14.1811C29.3003 17.3255 31.9492 19.8745 35.2168 19.8745Z" fill="#29A397"/>
<path d="M50.0607 17.0808C52.9543 17.0808 55.3 14.8235 55.3 12.0391C55.3 9.25469 52.9543 6.99747 50.0607 6.99747C47.1671 6.99747 44.8214 9.25469 44.8214 12.0391C44.8214 14.8235 47.1671 17.0808 50.0607 17.0808Z" fill="#29A397"/>
<path d="M57.983 19.6963C58.0322 19.8087 57.9931 19.868 57.9172 19.9515C57.8004 20.0799 56.0439 21.0021 55.5894 21.3608C55.1966 21.6706 53.893 23.1328 53.7754 23.1882C52.8388 23.6312 47.7947 23.0076 46.4344 23.246C45.8906 22.4539 45.2676 21.7516 44.4778 21.1754C44.0374 20.8544 42.0674 20.0053 42.0366 19.8745C41.9682 19.5872 44.2684 18.4588 44.6229 18.3352C47.155 17.4532 53.5803 17.4909 56.0498 18.5559C56.3067 18.6666 57.9288 19.5703 57.9839 19.6963H57.983Z" fill="#29A397"/>
<path d="M94.5623 22.2918C101.586 21.5125 101.907 30.1905 94.9326 29.7997C89.5057 29.4955 89.353 22.8696 94.5623 22.2918Z" fill="#29A397"/>
<path d="M1.2213 28.5461C-2.65272 25.0261 3.54572 20.0326 7.89597 23.2275C12.6999 26.7548 5.54653 32.477 1.2213 28.5461Z" fill="#29A397"/>
<path d="M74.9845 23.7901L56.0239 23.1449C57.3484 22.1401 59.0414 21.1064 60.7445 20.8464C62.8687 20.5221 68.7803 20.5735 70.7802 21.185C72.2998 21.6497 73.9303 22.6489 74.9854 23.7909L74.9845 23.7901Z" fill="#29A397"/>
<path d="M44.0899 23.258L25.1277 23.7901C26.387 22.4796 28.2444 21.3728 30.0717 20.9836C31.9775 20.5775 37.4737 20.551 39.4328 20.8608C41.0391 21.1152 42.969 22.1497 44.0908 23.2588L44.0899 23.258Z" fill="#29A397"/>
</g>
</svg>
